<?xml version="1.0" standalone="no"?>
<!DOCTYPE svg PUBLIC "-//W3C//DTD SVG 20010904//EN"
 "http://www.w3.org/TR/2001/REC-SVG-20010904/DTD/svg10.dtd">
<svg version="1.0" xmlns="http://www.w3.org/2000/svg"
 width="520.000000pt" height="604.000000pt" viewBox="0 0 520.000000 604.000000"
 preserveAspectRatio="xMidYMid meet"
 style="background: none;">   <!-- 👈 fondo transparente -->

<g transform="translate(0.000000,604.000000) scale(0.100000,-0.100000)"
fill="#87CEEB" stroke="none">  <!-- 👈 color azul celeste -->

<path d="M2503 5965 c-135 -93 -235 -176 -353 -295 -271 -272 -380 -496 -380
-781 0 -277 112 -534 379 -869 77 -97 343 -369 417 -427 l41 -32 179 177 c190
187 302 319 417 492 289 434 301 843 36 1220 -66 94 -255 289 -374 385 -92 75
-256 195 -265 194 -3 0 -47 -29 -97 -64z"/>
<path d="M750 4800 c-184 -26 -440 -99 -635 -183 l-100 -43 -3 -104 c-8 -261
61 -587 170 -805 153 -306 436 -497 808 -545 272 -35 678 23 1091 157 l56 18
-34 160 c-69 318 -192 631 -334 845 -72 109 -216 262 -305 326 -84 60 -231
127 -334 154 -97 24 -278 34 -380 20z"/>
<path d="M4143 4795 c-152 -27 -314 -98 -432 -189 -86 -67 -214 -208 -287
-317 -116 -173 -228 -437 -290 -682 -27 -109 -64 -282 -64 -303 0 -16 104 -50
315 -104 648 -165 1122 -104 1421 182 238 229 360 562 381 1043 l6 141 -99 46
c-183 86 -436 161 -627 187 -102 14 -234 13 -324 -4z"/>
<path d="M2481 3465 c-175 -49 -307 -203 -326 -381 -32 -287 212 -527 501
-492 247 29 425 262 387 507 -24 152 -109 268 -248 337 -67 33 -84 37 -167 40
-63 3 -111 -1 -147 -11z"/>
<path d="M1020 2953 c-87 -9 -250 -47 -319 -73 -42 -16 -112 -51 -156 -76
-109 -64 -265 -220 -329 -329 -124 -213 -198 -519 -200 -829 l-1 -148 100 -45
c272 -121 541 -184 785 -185 163 -1 290 28 434 99 102 50 180 109 283 216 200
207 346 496 452 897 48 180 70 290 60 296 -16 10 -270 84 -374 110 -173 42
-425 74 -570 72 -71 0 -146 -3 -165 -5z"/>
<path d="M3792 2944 c-200 -25 -401 -70 -619 -136 -79 -24 -103 -35 -103 -49
0 -30 59 -279 95 -401 65 -220 164 -439 273 -602 55 -84 212 -249 296 -313 75
-57 200 -116 309 -145 71 -20 106 -23 267 -23 137 0 208 5 273 18 149 30 316
82 462 145 l140 60 -2 134 c-5 327 -78 628 -203 838 -122 206 -347 379 -570
439 -184 49 -409 62 -618 35z"/>
<path d="M2488 2407 c-105 -96 -261 -260 -358 -377 -142 -172 -279 -421 -327
-595 -26 -91 -28 -114 -27 -265 0 -136 4 -179 22 -242 59 -214 147 -355 346
-553 132 -131 328 -291 422 -345 l40 -23 104 73 c202 143 390 319 508 475 69
93 145 241 178 351 25 81 28 103 28 259 1 150 -2 180 -23 255 -70 250 -209
475 -474 768 -100 111 -311 312 -327 312 -5 0 -55 -42 -112 -93z"/>
</g>
</svg>